<svg width="128" height="128" viewBox="0 0 128 128" fill="none" xmlns="http://www.w3.org/2000/svg">
<g clip-path="url(#clip0_1_293)">
<rect width="128" height="128" rx="24" fill="black"/>
<path d="M45.436 86.856H66.044V99H29.704V34.416H45.436V86.856ZM89.2798 34.416V99H73.5478V34.416H89.2798ZM158.457 99H142.725L116.413 59.164V99H100.681V34.416H116.413L142.725 74.436V34.416H158.457V99ZM227.636 99H211.904L185.592 59.164V99H169.86V34.416H185.592L211.904 74.436V34.416H227.636V99ZM279.244 87.592H255.14L251.276 99H234.808L258.176 34.416H276.392L299.76 99H283.108L279.244 87.592ZM275.196 75.448L267.192 51.804L259.28 75.448H275.196Z" fill="white"/>
</g>
<defs>
<clipPath id="clip0_1_293">
<rect width="128" height="128" rx="24" fill="white"/>
</clipPath>
</defs>
</svg>
